<svg width="44" height="43" viewBox="0 0 44 43" fill="none" xmlns="http://www.w3.org/2000/svg">
<path d="M37.7266 12.3457L39.7891 8.39844L35.4062 4.11523L31.3672 6.13086C30.1641 5.40299 28.5599 4.73112 26.5547 4.11523L25.0938 0H18.9062L17.4453 4.11523C15.4401 4.73112 13.8359 5.40299 12.6328 6.13086L8.59375 4.11523L4.21094 8.39844L6.27344 12.3457C5.52865 13.5215 4.84115 15.0892 4.21094 17.0488L0 18.4766V24.5234L4.21094 25.9512C4.4974 27.4629 5.1849 29.0306 6.27344 30.6543L4.21094 34.6016L8.59375 38.8848L12.6328 36.8691C13.8359 37.597 15.4401 38.2689 17.4453 38.8848L18.9062 43H25.0938L26.5547 38.8848C28.1016 38.6048 29.7057 37.9329 31.3672 36.8691L35.4062 38.8848L39.7891 34.6016L37.7266 30.6543C38.4714 29.4785 39.1589 27.9108 39.7891 25.9512L44 24.5234V18.4766L39.7891 17.0488C39.1589 15.0892 38.4714 13.5215 37.7266 12.3457ZM40.3047 22.0039L36.6953 23.2637L36.5234 24.3555C36.1224 26.3151 35.3776 28.0508 34.2891 29.5625L33.5156 30.4863L35.4062 33.8457L34.6328 34.6016L31.1953 32.7539L30.25 33.3418C28.7031 34.3496 26.9271 35.0495 24.9219 35.4414L23.8047 35.8613L22.5156 39.3887H21.4844L20.1953 35.8613L19.0781 35.6934C17.0729 35.3014 15.2969 34.5736 13.75 33.5098L12.8047 32.7539L9.36719 34.6016L8.59375 33.8457L10.4844 30.4863L9.88281 29.5625C8.85156 28.0508 8.13542 26.3151 7.73438 24.3555L7.30469 23.2637L3.69531 22.0039V20.9961L7.30469 19.7363L7.47656 18.6445C7.8776 16.6849 8.6224 14.9492 9.71094 13.4375L10.4844 12.5137L8.59375 9.1543L9.36719 8.39844L12.8047 10.2461L13.75 9.6582C15.2969 8.65039 17.0729 7.95052 19.0781 7.55859L20.1953 7.13867L21.4844 3.61133H22.5156L23.8047 7.13867L24.9219 7.30664C26.9271 7.69857 28.7031 8.42643 30.25 9.49023L31.1953 10.2461L34.6328 8.39844L35.4062 9.1543L33.5156 12.5137L34.1172 13.4375C35.1484 14.9492 35.8646 16.6849 36.2656 18.6445L36.6953 19.7363L40.3047 20.9961V22.0039ZM22 12.5137C19.4219 12.5137 17.2448 13.3815 15.4688 15.1172C13.6927 16.8529 12.8047 18.9805 12.8047 21.5C12.8047 24.0195 13.6927 26.1471 15.4688 27.8828C17.2448 29.6185 19.4219 30.4863 22 30.4863C24.5781 30.4863 26.7552 29.6185 28.5312 27.8828C30.3073 26.1471 31.1953 24.0195 31.1953 21.5C31.1953 18.9805 30.3073 16.8529 28.5312 15.1172C26.7552 13.3815 24.5781 12.5137 22 12.5137ZM22 26.875C20.4531 26.875 19.1497 26.3571 18.0898 25.3213C17.0299 24.2855 16.5 23.0117 16.5 21.5C16.5 19.9883 17.0299 18.7145 18.0898 17.6787C19.1497 16.6429 20.4531 16.125 22 16.125C23.5469 16.125 24.8503 16.6429 25.9102 17.6787C26.9701 18.7145 27.5 19.9883 27.5 21.5C27.5 23.0117 26.9701 24.2855 25.9102 25.3213C24.8503 26.3571 23.5469 26.875 22 26.875Z" fill="white"/>
</svg>
